<?xml version="1.0" encoding="UTF-8"?>
<svg width="27px" height="17px" viewBox="0 0 27 17" version="1.1" xmlns="http://www.w3.org/2000/svg" xmlns:xlink="http://www.w3.org/1999/xlink">
    <!-- Generator: Sketch 52.2 (67145) - http://www.bohemiancoding.com/sketch -->
    <title>icon-equals</title>
    <desc>Created with Sketch.</desc>
    <g id="Latest-Design" stroke="none" stroke-width="1" fill="none" fill-rule="evenodd">
        <g id="Homepage---desktop" transform="translate(-801.000000, -884.000000)" fill="#009B3D">
            <path d="M803.268443,889.49835 C801.77459,889.49835 801,888.656766 801,887.141914 L801,886.30033 C801,884.785479 801.77459,884 803.268443,884 L825.67623,884 C827.170082,884 828,884.785479 828,886.30033 L828,887.141914 C828,888.656766 827.170082,889.49835 825.67623,889.49835 L803.268443,889.49835 Z M803.268443,901 C801.77459,901 801,900.214521 801,898.69967 L801,897.858086 C801,896.287129 801.77459,895.50165 803.268443,895.50165 L825.67623,895.50165 C827.170082,895.50165 828,896.287129 828,897.858086 L828,898.69967 C828,900.214521 827.170082,901 825.67623,901 L803.268443,901 Z" id="icon-equals"></path>
        </g>
    </g>
</svg>