<?xml version="1.0" encoding="UTF-8"?>
<svg width="28px" height="30px" viewBox="0 0 28 30" version="1.1" xmlns="http://www.w3.org/2000/svg" xmlns:xlink="http://www.w3.org/1999/xlink">
    <!-- Generator: Sketch 52.2 (67145) - http://www.bohemiancoding.com/sketch -->
    <title>+ copy 2</title>
    <desc>Created with Sketch.</desc>
    <g id="Latest-Design" stroke="none" stroke-width="1" fill="none" fill-rule="evenodd">
        <g id="Homepage---desktop" transform="translate(-321.000000, -880.000000)" fill="#009B3D">
            <path d="M323.198131,897.622378 C321.73271,897.622378 321,896.835664 321,895.41958 L321,894.632867 C321,893.216783 321.73271,892.43007 323.198131,892.43007 L332.304673,892.43007 L332.304673,882.202797 C332.304673,880.786713 333.08972,880 334.502804,880 L335.549533,880 C336.962617,880 337.695327,880.786713 337.695327,882.202797 L337.695327,892.43007 L346.854206,892.43007 C348.26729,892.43007 349,893.216783 349,894.632867 L349,895.41958 C349,896.835664 348.26729,897.622378 346.854206,897.622378 L337.695327,897.622378 L337.695327,907.797203 C337.695327,909.265734 336.962617,910 335.549533,910 L334.502804,910 C333.08972,910 332.304673,909.265734 332.304673,907.797203 L332.304673,897.622378 L323.198131,897.622378 Z" id="+-copy-2"></path>
        </g>
    </g>
</svg>